<?xml version="1.0" encoding="UTF-8"?>
<svg width="100" height="100" viewBox="0 0 100 100" fill="none" xmlns="http://www.w3.org/2000/svg">
  <circle cx="50" cy="50" r="45" fill="#000" stroke="#F97316" stroke-width="4"/>
  <path d="M36 40C36 36.6863 38.6863 34 42 34H58C61.3137 34 64 36.6863 64 40V53C64 56.3137 61.3137 59 58 59H42C38.6863 59 36 56.3137 36 53V40Z" fill="#F97316"/>
  <path d="M31 58C31 56.8954 31.8954 56 33 56H66C67.1046 56 68 56.8954 68 58V63C68 64.1046 67.1046 65 66 65H33C31.8954 65 31 64.1046 31 63V58Z" fill="#F97316"/>
  <path d="M38 65L38 72.5C38 74.433 39.567 76 41.5 76V76C43.433 76 45 74.433 45 72.5L45 65" stroke="#F97316" stroke-width="4" stroke-linecap="round"/>
  <path d="M54 65L54 72.5C54 74.433 55.567 76 57.5 76V76C59.433 76 61 74.433 61 72.5L61 65" stroke="#F97316" stroke-width="4" stroke-linecap="round"/>
  <path d="M29 47L71 47" stroke="#F97316" stroke-width="4"/>
  <path d="M50 29L50 34" stroke="#F97316" stroke-width="4" stroke-linecap="round"/>
  <path d="M41 26L45 33" stroke="#F97316" stroke-width="4" stroke-linecap="round"/>
  <path d="M59 26L55 33" stroke="#F97316" stroke-width="4" stroke-linecap="round"/>
</svg>
